<svg t="1592474149725" class="icon" viewBox="0 0 1024 1024" version="1.1" xmlns="http://www.w3.org/2000/svg" p-id="3395" xmlns:xlink="http://www.w3.org/1999/xlink" width="48" height="48"><defs><style type="text/css"></style></defs><path d="M866.9 154.5H499l-27.4-60.7c-4-9-13-14.7-22.8-14.7H159.7c-29.8 0-54 25.6-54 57.1v748.6c0 31.5 24.2 57.1 54 57.1H867c29.8 0 54-25.6 54-57.1V211.7c-0.1-31.5-24.3-57.2-54.1-57.2z m-18.3 706.8c0 2.3-1.8 4.1-3.9 4.1H181.9c-2.2 0-3.9-1.9-3.9-4.1V395.2h670.5v466.1z m0-542.7H178V159.8c0-2.3 1.8-4.1 3.9-4.1h240.2l30.8 61.6c4.2 8.5 12.9 13.8 22.4 13.8h369.4c2.2 0 3.9 1.9 3.9 4.1v83.4z" p-id="3396"></path><path d="M562 776h192c20.9 0 38-17.1 38-38s-17.1-38-38-38H562c-20.9 0-38 17.1-38 38s17.1 38 38 38z" p-id="3397"></path></svg>