<?xml version="1.0" standalone="no"?><!DOCTYPE svg PUBLIC "-//W3C//DTD SVG 1.1//EN" "http://www.w3.org/Graphics/SVG/1.1/DTD/svg11.dtd"><svg t="1593418323107" class="icon" viewBox="0 0 1024 1024" version="1.1" xmlns="http://www.w3.org/2000/svg" p-id="930" xmlns:xlink="http://www.w3.org/1999/xlink" width="48" height="48"><defs><style type="text/css"></style></defs><path d="M720 192h-32V0H336v192h-32a48 48 0 0 0-48 48v528c0 141.39 114.61 256 256 256s256-114.61 256-256V240a48 48 0 0 0-48-48zM360 24h304v168H360z m360 744a208 208 0 1 1-416 0V240h416zM512 664a104 104 0 1 0 104 104 104 104 0 0 0-104-104z m0 184a80 80 0 1 1 80-80 80.09 80.09 0 0 1-80 80z" fill="" p-id="931"></path><path d="M480 142h-64V78h64z m128-64h-64v64h64z" fill="#1890FF" p-id="932"></path></svg>